<svg version="1.1" viewBox="0.0 0.0 960.0 540.0" fill="none" stroke="none" stroke-linecap="square" stroke-miterlimit="10" xmlns:xlink="http://www.w3.org/1999/xlink" xmlns="http://www.w3.org/2000/svg"><clipPath id="p.0"><path d="m0 0l960.0 0l0 540.0l-960.0 0l0 -540.0z" clip-rule="nonzero"/></clipPath><g clip-path="url(#p.0)"><path fill="#000000" fill-opacity="0.0" d="m0 0l960.0 0l0 540.0l-960.0 0z" fill-rule="evenodd"/><g filter="url(#shadowFilter-p.1)"><use xlink:href="#p.1" transform="matrix(1.0 0.0 0.0 1.0 0.0 2.0)"/></g><defs><filter id="shadowFilter-p.1" filterUnits="userSpaceOnUse"><feGaussianBlur in="SourceAlpha" stdDeviation="2.0" result="blur"/><feComponentTransfer in="blur" color-interpolation-filters="sRGB"><feFuncR type="linear" slope="0" intercept="0.0"/><feFuncG type="linear" slope="0" intercept="0.0"/><feFuncB type="linear" slope="0" intercept="0.0"/><feFuncA type="linear" slope="0.5" intercept="0"/></feComponentTransfer></filter></defs><g id="p.1"><path fill="#ffffff" d="m0 0l960.0 0l0 540.0l-960.0 0z" fill-rule="evenodd"/><path stroke="#000000" stroke-width="8.0" stroke-linejoin="round" stroke-linecap="butt" d="m0 0l960.0 0l0 540.0l-960.0 0z" fill-rule="evenodd"/></g><g filter="url(#shadowFilter-p.2)"><use xlink:href="#p.2" transform="matrix(1.0 0.0 0.0 1.0 0.0 2.0)"/></g><defs><filter id="shadowFilter-p.2" filterUnits="userSpaceOnUse"><feGaussianBlur in="SourceAlpha" stdDeviation="2.0" result="blur"/><feComponentTransfer in="blur" color-interpolation-filters="sRGB"><feFuncR type="linear" slope="0" intercept="0.0"/><feFuncG type="linear" slope="0" intercept="0.0"/><feFuncB type="linear" slope="0" intercept="0.0"/><feFuncA type="linear" slope="0.5" intercept="0"/></feComponentTransfer></filter></defs><g id="p.2"><path fill="#000000" fill-opacity="0.0" d="m406.6614 19.152231l146.67715 0l0 62.14173l-146.67715 0z" fill-rule="evenodd"/><path fill="#b7b7b7" d="m460.92188 70.90785q3.953125 -5.15625 3.953125 -11.859375l0 -19.59375l14.09375 0l0 -4.8125l3.78125 0q1.71875 0.34375 0.171875 1.375l0 3.4375l15.296875 0l0 3.265625l-29.90625 0l0 16.5q0 8.421875 -4.46875 14.4375l-2.921875 -2.75zm30.59375 -2.40625l0 -7.390625l-15.984375 0l0 7.390625l15.984375 0zm-8.25 -23.890625q1.375 0.171875 0.171875 1.03125l0 3.609375l13.75 0l0 3.265625l-13.75 0l0 5.328125l11.515625 0l0 15.8125l-3.4375 0l0 -1.890625l-15.984375 0l0 2.234375l-3.4375 0l0 -16.15625l7.90625 0l0 -13.234375l3.265625 0z" fill-rule="nonzero"/></g><g filter="url(#shadowFilter-p.3)"><use xlink:href="#p.3" transform="matrix(1.0 0.0 0.0 1.0 0.0 2.0)"/></g><defs><filter id="shadowFilter-p.3" filterUnits="userSpaceOnUse"><feGaussianBlur in="SourceAlpha" stdDeviation="2.0" result="blur"/><feComponentTransfer in="blur" color-interpolation-filters="sRGB"><feFuncR type="linear" slope="0" intercept="0.0"/><feFuncG type="linear" slope="0" intercept="0.0"/><feFuncB type="linear" slope="0" intercept="0.0"/><feFuncA type="linear" slope="0.5" intercept="0"/></feComponentTransfer></filter></defs><g id="p.3"><path fill="#000000" fill-opacity="0.0" d="m349.43832 11.152231l261.13388 0l0 62.14173l-261.13388 0z" fill-rule="evenodd"/><path fill="#000000" d="m412.59802 44.689102q-1.890625 2.578125 -3.953125 4.46875q-2.75 2.578125 -6.53125 2.578125q-2.921875 0 -8.078125 -3.09375q-3.953125 -2.40625 -6.53125 -2.40625q-2.921875 0 -4.46875 1.890625q-1.71875 2.0625 -1.890625 2.921875l-3.609375 -2.234375q1.375 -2.578125 3.78125 -4.8125q2.578125 -2.40625 5.84375 -2.40625q3.4375 0 7.734375 2.578125q4.640625 2.75 7.734375 2.75q2.234375 0 4.46875 -2.234375q1.03125 -1.03125 2.0625 -2.921875l3.4375 2.921875z" fill-rule="nonzero"/><path fill="#000000" d="m419.05115 60.954727l1.5625 -3.953125q1.203125 0.875 3.0 1.46875q1.796875 0.59375 3.203125 0.59375q2.515625 0 4.03125 -1.375q1.53125 -1.375 1.53125 -3.5q0 -1.59375 -0.84375 -2.953125q-0.84375 -1.375 -4.265625 -2.984375l-2.53125 -1.171875q-3.21875 -1.515625 -4.5 -3.578125q-1.28125 -2.0625 -1.28125 -4.953125q0 -3.53125 2.484375 -5.84375q2.5 -2.328123 6.40625 -2.328123q5.21875 0 7.265625 1.7031231l-1.265625 3.734375q-0.859375 -0.625 -2.625 -1.203125q-1.765625 -0.578125 -3.265625 -0.578125q-2.1875 0 -3.453125 1.25q-1.25 1.234375 -1.25 3.203125q0 1.203125 0.453125 2.1875q0.453125 0.984375 1.25 1.65625q0.8125 0.65625 3.296875 1.859375l2.578125 1.234375q3.234375 1.515625 4.53125 3.640625q1.296875 2.109375 1.296875 5.375q0 3.546875 -2.84375 6.015625q-2.84375 2.46875 -7.625 2.46875q-4.1875 0 -7.140625 -1.96875zm34.052734 -26.171875l0 27.609375l-4.296875 0l0 -27.609375l-10.015625 0l0 -3.859373l24.765625 0l0 3.859373l-10.453125 0zm12.560547 11.609375q0 -6.84375 3.421875 -11.4375q3.4375 -4.593748 9.25 -4.593748q6.5625 0 10.046875 4.234373q3.5 4.234375 3.5 11.796875q0 7.75 -3.515625 12.140625q-3.5 4.390625 -10.03125 4.390625q-5.953125 0 -9.3125 -4.640625q-3.359375 -4.640625 -3.359375 -11.890625zm4.515625 0q0 5.40625 2.125 9.046875q2.140625 3.625 6.03125 3.625q4.40625 0 6.71875 -3.328125q2.3125 -3.328125 2.3125 -9.34375q0 -12.171875 -9.03125 -12.171875q-3.984375 0 -6.078125 3.265625q-2.078125 3.265625 -2.078125 8.90625zm44.101562 16.0l-8.390625 -13.515625q-1.453125 0 -4.5625 -0.21875l0 13.734375l-4.296875 0l0 -31.468748q0.234375 0 3.34375 -0.15625q3.109375 -0.171875 4.515625 -0.171875q11.34375 0 11.34375 9.015623q0 2.96875 -1.828125 5.34375q-1.8125 2.375 -4.328125 2.953125l9.125 14.484375l-4.921875 0zm-12.953125 -27.609375l0 10.234375q1.546875 0.203125 3.015625 0.203125q3.859375 0 5.625 -1.234375q1.765625 -1.25 1.765625 -4.453125q0 -2.640625 -1.890625 -3.796875q-1.890625 -1.171875 -5.984375 -1.171875q-0.640625 0 -2.53125 0.21875zm25.390625 0l0 8.75l10.40625 0l0 3.640625l-10.40625 0l0 11.34375l14.265625 0l0 3.875l-18.5625 0l0 -31.468748l18.796875 0l0 3.859373l-14.5 0z" fill-rule="nonzero"/><path fill="#000000" d="m582.1312 44.689102q-1.890625 2.578125 -3.953125 4.46875q-2.75 2.578125 -6.53125 2.578125q-2.921875 0 -8.078125 -3.09375q-3.953125 -2.40625 -6.53125 -2.40625q-2.921875 0 -4.46875 1.890625q-1.71875 2.0625 -1.890625 2.921875l-3.609375 -2.234375q1.375 -2.578125 3.78125 -4.8125q2.578125 -2.40625 5.84375 -2.40625q3.4375 0 7.734375 2.578125q4.640625 2.75 7.734375 2.75q2.234375 0 4.46875 -2.234375q1.03125 -1.03125 2.0625 -2.921875l3.4375 2.921875z" fill-rule="nonzero"/></g><g filter="url(#shadowFilter-p.4)"><use xlink:href="#p.4" transform="matrix(1.0 0.0 0.0 1.0 0.0 2.0)"/></g><defs><filter id="shadowFilter-p.4" filterUnits="userSpaceOnUse"><feGaussianBlur in="SourceAlpha" stdDeviation="2.0" result="blur"/><feComponentTransfer in="blur" color-interpolation-filters="sRGB"><feFuncR type="linear" slope="0" intercept="0.0"/><feFuncG type="linear" slope="0" intercept="0.0"/><feFuncB type="linear" slope="0" intercept="0.0"/><feFuncA type="linear" slope="0.5" intercept="0"/></feComponentTransfer></filter></defs><g id="p.4"><path fill="#ffffff" d="m670.1298 111.46446l177.07086 0l0 177.07088l-177.07086 0z" fill-rule="evenodd"/><path stroke="#000000" stroke-width="1.0" stroke-linejoin="round" stroke-linecap="butt" d="m670.1298 111.46446l177.07086 0l0 177.07088l-177.07086 0z" fill-rule="evenodd"/></g><g filter="url(#shadowFilter-p.5)"><use xlink:href="#p.5" transform="matrix(1.0 0.0 0.0 1.0 0.0 2.0)"/></g><defs><filter id="shadowFilter-p.5" filterUnits="userSpaceOnUse"><feGaussianBlur in="SourceAlpha" stdDeviation="2.0" result="blur"/><feComponentTransfer in="blur" color-interpolation-filters="sRGB"><feFuncR type="linear" slope="0" intercept="0.0"/><feFuncG type="linear" slope="0" intercept="0.0"/><feFuncB type="linear" slope="0" intercept="0.0"/><feFuncA type="linear" slope="0.5" intercept="0"/></feComponentTransfer></filter></defs><g id="p.5"><path fill="#000000" fill-opacity="0.0" d="m619.92914 100.944885l0 402.80313" fill-rule="evenodd"/><path stroke="#999999" stroke-width="2.0" stroke-linejoin="round" stroke-linecap="butt" d="m619.92914 100.944885l0 402.80313" fill-rule="evenodd"/></g><g filter="url(#shadowFilter-p.6)"><use xlink:href="#p.6" transform="matrix(1.0 0.0 0.0 1.0 0.0 2.0)"/></g><defs><filter id="shadowFilter-p.6" filterUnits="userSpaceOnUse"><feGaussianBlur in="SourceAlpha" stdDeviation="2.0" result="blur"/><feComponentTransfer in="blur" color-interpolation-filters="sRGB"><feFuncR type="linear" slope="0" intercept="0.0"/><feFuncG type="linear" slope="0" intercept="0.0"/><feFuncB type="linear" slope="0" intercept="0.0"/><feFuncA type="linear" slope="0.5" intercept="0"/></feComponentTransfer></filter></defs><g id="p.6"><path fill="#000000" fill-opacity="0.0" d="m341.06036 100.944885l0 402.80313" fill-rule="evenodd"/><path stroke="#999999" stroke-width="2.0" stroke-linejoin="round" stroke-linecap="butt" d="m341.06036 100.944885l0 402.80313" fill-rule="evenodd"/></g><g filter="url(#shadowFilter-p.7)"><use xlink:href="#p.7" transform="matrix(1.0 0.0 0.0 1.0 0.0 2.0)"/></g><defs><filter id="shadowFilter-p.7" filterUnits="userSpaceOnUse"><feGaussianBlur in="SourceAlpha" stdDeviation="2.0" result="blur"/><feComponentTransfer in="blur" color-interpolation-filters="sRGB"><feFuncR type="linear" slope="0" intercept="0.0"/><feFuncG type="linear" slope="0" intercept="0.0"/><feFuncB type="linear" slope="0" intercept="0.0"/><feFuncA type="linear" slope="0.5" intercept="0"/></feComponentTransfer></filter></defs><g id="p.7"><path fill="#000000" fill-opacity="0.0" d="m2.9396327 502.41733l956.5039 0" fill-rule="evenodd"/><path stroke="#000000" stroke-width="4.0" stroke-linejoin="round" stroke-linecap="butt" d="m2.9396327 502.41733l956.5039 0" fill-rule="evenodd"/></g><g filter="url(#shadowFilter-p.8)"><use xlink:href="#p.8" transform="matrix(1.0 0.0 0.0 1.0 0.0 2.0)"/></g><defs><filter id="shadowFilter-p.8" filterUnits="userSpaceOnUse"><feGaussianBlur in="SourceAlpha" stdDeviation="2.0" result="blur"/><feComponentTransfer in="blur" color-interpolation-filters="sRGB"><feFuncR type="linear" slope="0" intercept="0.0"/><feFuncG type="linear" slope="0" intercept="0.0"/><feFuncB type="linear" slope="0" intercept="0.0"/><feFuncA type="linear" slope="0.5" intercept="0"/></feComponentTransfer></filter></defs><g id="p.8"><path fill="#ffffff" d="m390.2756 111.465775l177.07083 0l0 177.07088l-177.07083 0z" fill-rule="evenodd"/><path stroke="#000000" stroke-width="1.0" stroke-linejoin="round" stroke-linecap="butt" d="m390.2756 111.465775l177.07083 0l0 177.07088l-177.07083 0z" fill-rule="evenodd"/></g><g filter="url(#shadowFilter-p.9)"><use xlink:href="#p.9" transform="matrix(1.0 0.0 0.0 1.0 0.0 2.0)"/></g><defs><filter id="shadowFilter-p.9" filterUnits="userSpaceOnUse"><feGaussianBlur in="SourceAlpha" stdDeviation="2.0" result="blur"/><feComponentTransfer in="blur" color-interpolation-filters="sRGB"><feFuncR type="linear" slope="0" intercept="0.0"/><feFuncG type="linear" slope="0" intercept="0.0"/><feFuncB type="linear" slope="0" intercept="0.0"/><feFuncA type="linear" slope="0.5" intercept="0"/></feComponentTransfer></filter></defs><g id="p.9"><path fill="#ffffff" d="m112.81628 112.61801l177.07086 0l0 177.07086l-177.07086 0z" fill-rule="evenodd"/><path stroke="#000000" stroke-width="1.0" stroke-linejoin="round" stroke-linecap="butt" d="m112.81628 112.61801l177.07086 0l0 177.07086l-177.07086 0z" fill-rule="evenodd"/></g><g filter="url(#shadowFilter-p.10)"><use xlink:href="#p.10" transform="matrix(1.0 0.0 0.0 1.0 0.0 2.0)"/></g><defs><filter id="shadowFilter-p.10" filterUnits="userSpaceOnUse"><feGaussianBlur in="SourceAlpha" stdDeviation="2.0" result="blur"/><feComponentTransfer in="blur" color-interpolation-filters="sRGB"><feFuncR type="linear" slope="0" intercept="0.0"/><feFuncG type="linear" slope="0" intercept="0.0"/><feFuncB type="linear" slope="0" intercept="0.0"/><feFuncA type="linear" slope="0.5" intercept="0"/></feComponentTransfer></filter></defs><g id="p.10"><path fill="#ffffff" d="m670.1298 313.8424l177.07086 0l0 177.07086l-177.07086 0z" fill-rule="evenodd"/><path stroke="#000000" stroke-width="1.0" stroke-linejoin="round" stroke-linecap="butt" d="m670.1298 313.8424l177.07086 0l0 177.07086l-177.07086 0z" fill-rule="evenodd"/></g><g filter="url(#shadowFilter-p.11)"><use xlink:href="#p.11" transform="matrix(1.0 0.0 0.0 1.0 0.0 2.0)"/></g><defs><filter id="shadowFilter-p.11" filterUnits="userSpaceOnUse"><feGaussianBlur in="SourceAlpha" stdDeviation="2.0" result="blur"/><feComponentTransfer in="blur" color-interpolation-filters="sRGB"><feFuncR type="linear" slope="0" intercept="0.0"/><feFuncG type="linear" slope="0" intercept="0.0"/><feFuncB type="linear" slope="0" intercept="0.0"/><feFuncA type="linear" slope="0.5" intercept="0"/></feComponentTransfer></filter></defs><g id="p.11"><path fill="#ffffff" d="m390.2756 313.84372l177.07083 0l0 177.07086l-177.07083 0z" fill-rule="evenodd"/><path stroke="#000000" stroke-width="1.0" stroke-linejoin="round" stroke-linecap="butt" d="m390.2756 313.84372l177.07083 0l0 177.07086l-177.07083 0z" fill-rule="evenodd"/></g><g filter="url(#shadowFilter-p.12)"><use xlink:href="#p.12" transform="matrix(1.0 0.0 0.0 1.0 0.0 2.0)"/></g><defs><filter id="shadowFilter-p.12" filterUnits="userSpaceOnUse"><feGaussianBlur in="SourceAlpha" stdDeviation="2.0" result="blur"/><feComponentTransfer in="blur" color-interpolation-filters="sRGB"><feFuncR type="linear" slope="0" intercept="0.0"/><feFuncG type="linear" slope="0" intercept="0.0"/><feFuncB type="linear" slope="0" intercept="0.0"/><feFuncA type="linear" slope="0.5" intercept="0"/></feComponentTransfer></filter></defs><g id="p.12"><path fill="#ffffff" d="m112.81628 314.99597l177.07086 0l0 177.07086l-177.07086 0z" fill-rule="evenodd"/><path stroke="#000000" stroke-width="1.0" stroke-linejoin="round" stroke-linecap="butt" d="m112.81628 314.99597l177.07086 0l0 177.07086l-177.07086 0z" fill-rule="evenodd"/></g><g filter="url(#shadowFilter-p.13)"><use xlink:href="#p.13" transform="matrix(1.0 0.0 0.0 1.0 0.0 2.0)"/></g><defs><filter id="shadowFilter-p.13" filterUnits="userSpaceOnUse"><feGaussianBlur in="SourceAlpha" stdDeviation="2.0" result="blur"/><feComponentTransfer in="blur" color-interpolation-filters="sRGB"><feFuncR type="linear" slope="0" intercept="0.0"/><feFuncG type="linear" slope="0" intercept="0.0"/><feFuncB type="linear" slope="0" intercept="0.0"/><feFuncA type="linear" slope="0.5" intercept="0"/></feComponentTransfer></filter></defs><g id="p.13"><path fill="#000000" fill-opacity="0.0" d="m-0.9790026 99.96326l960.4409 0" fill-rule="evenodd"/><path stroke="#000000" stroke-width="4.0" stroke-linejoin="round" stroke-linecap="butt" d="m-0.9790026 99.96326l960.4409 0" fill-rule="evenodd"/></g><g filter="url(#shadowFilter-p.14)"><use xlink:href="#p.14" transform="matrix(1.0 0.0 0.0 1.0 0.0 2.0)"/></g><defs><filter id="shadowFilter-p.14" filterUnits="userSpaceOnUse"><feGaussianBlur in="SourceAlpha" stdDeviation="2.0" result="blur"/><feComponentTransfer in="blur" color-interpolation-filters="sRGB"><feFuncR type="linear" slope="0" intercept="0.0"/><feFuncG type="linear" slope="0" intercept="0.0"/><feFuncB type="linear" slope="0" intercept="0.0"/><feFuncA type="linear" slope="0.5" intercept="0"/></feComponentTransfer></filter></defs><g id="p.14"><path fill="#000000" fill-opacity="0.0" d="m1.9475065 303.14697l958.48816 0" fill-rule="evenodd"/><path stroke="#000000" stroke-width="4.0" stroke-linejoin="round" stroke-linecap="butt" d="m1.9475065 303.14697l958.48816 0" fill-rule="evenodd"/></g></g></svg>